<?xml version="1.0" encoding="UTF-8" standalone="no"?><svg xmlns="http://www.w3.org/2000/svg" xmlns:xlink="http://www.w3.org/1999/xlink" contentScriptType="text/ecmascript" fill="#252525" width="176.1" zoomAndPan="magnify" contentStyleType="text/css" viewBox="0.0 0.0 176.1 42.2" height="42.2" preserveAspectRatio="xMidYMid meet" version="1"><g id="change1_1"><path d="M42.19,21.1c0,11.65-9.44,21.1-21.1,21.1S0,32.75,0,21.1S9.44,0,21.1,0S42.19,9.44,42.19,21.1z M88.05,0 c-11.65,0-21.1,9.44-21.1,21.1s9.44,21.1,21.1,21.1s21.1-9.44,21.1-21.1S99.7,0,88.05,0z M155.01,0c-11.65,0-21.1,9.44-21.1,21.1 s9.44,21.1,21.1,21.1c11.65,0,21.1-9.44,21.1-21.1S166.66,0,155.01,0z"/></g></svg>