<?xml version="1.0" encoding="UTF-8" standalone="no"?><svg xmlns="http://www.w3.org/2000/svg" xmlns:xlink="http://www.w3.org/1999/xlink" contentScriptType="text/ecmascript" fill="#000000" width="1491.2" zoomAndPan="magnify" contentStyleType="text/css" viewBox="-1.6 0.5 1491.2 1456.3" height="1456.3" preserveAspectRatio="xMidYMid meet" version="1"><g id="change1_1"><path fill="#0c3b4d" d="M 732.78125 0.460938 C 578.421875 0.460938 692.929688 339.550781 607.25 389.011719 C 521.570312 438.480469 331.316406 99.898438 230.652344 197.71875 C 129.984375 295.550781 446.777344 492.5 409.984375 577.3125 C 373.191406 662.121094 -1.605469 561.957031 0.507812 708.820312 C 2.625 855.6875 401.792969 758.5625 433.894531 834.355469 C 465.996094 910.148438 116.835938 1125.425781 224.675781 1228.886719 C 332.511719 1332.34375 531.039062 967.734375 613.226562 1001.730469 C 695.417969 1035.730469 574.972656 1455.335938 732.78125 1456.039062 C 890.59375 1456.710938 781.867188 1027.457031 858.316406 995.753906 C 934.761719 964.054688 1153.441406 1337.664062 1261.808594 1225.898438 C 1370.191406 1114.136719 982.597656 906.535156 1016.730469 825.386719 C 1050.859375 744.242188 1482.351562 878.117188 1485.980469 717.789062 C 1489.609375 557.464844 1048.71875 653.039062 1022.699219 589.265625 C 996.683594 525.492188 1376.230469 287.109375 1261.808594 176.800781 C 1147.398438 66.5 929.320312 471.851562 858.316406 430.859375 C 787.308594 389.859375 887.144531 0.460938 732.78125 0.460938 Z M 732.78125 0.460938"/></g></svg>